<?xml version="1.0" encoding="utf-8"?>
<!-- Generator: Adobe Illustrator 27.8.1, SVG Export Plug-In . SVG Version: 6.00 Build 0)  -->
<svg version="1.1" id="Layer_1" xmlns="http://www.w3.org/2000/svg" xmlns:xlink="http://www.w3.org/1999/xlink" x="0px" y="0px"
	 viewBox="0 0 595.28 600.5" style="enable-background:new 0 0 595.28 600.5;" xml:space="preserve">
<style type="text/css">
	.st0{fill:#FB2D26;}
	.st1{fill:#25BF23;}
	.st2{fill:#FDFEFD;}
	.st3{fill:#DBDCDB;}
	.st4{fill:#72BD28;}
	.st5{fill:#B3DB00;}
	.st6{fill:#1495FE;}
	.st7{fill:#6E2DA7;}
	.st8{fill:#1284E8;}
	.st9{fill:#591F90;}
	.st10{fill:none;stroke:#1B75BB;stroke-width:3;stroke-miterlimit:10;}
	.st11{fill:none;stroke:url(#SVGID_1_);stroke-width:6;stroke-miterlimit:10;}
	.st12{fill:none;stroke:url(#SVGID_00000013190412414421650890000017662751620933982399_);stroke-width:8;stroke-miterlimit:10;}
	.st13{fill:none;stroke:#57BAEA;stroke-width:8;stroke-miterlimit:10;}
	.st14{fill:none;stroke:#F6921E;stroke-width:10;stroke-miterlimit:10;}
	.st15{fill:none;stroke:#F6921E;stroke-width:8;stroke-miterlimit:10;}
	.st16{fill:none;stroke:#F6921E;stroke-width:12;stroke-miterlimit:10;}
	.st17{fill:none;stroke:url(#SVGID_00000095311448255484761840000007599228449439117495_);stroke-width:8;stroke-miterlimit:10;}
	.st18{fill:none;stroke:url(#SVGID_00000031176366776257610570000014820340786932564904_);stroke-width:10;stroke-miterlimit:10;}
	.st19{fill:none;stroke:url(#SVGID_00000149365199693985246470000009570861044906232754_);stroke-width:11;stroke-miterlimit:10;}
	.st20{fill:none;stroke:url(#SVGID_00000147933111926539133580000000590346391356643254_);stroke-width:11;stroke-miterlimit:10;}
	.st21{fill:none;stroke:url(#SVGID_00000091010670356618607360000016253955100840769701_);stroke-width:10;stroke-miterlimit:10;}
	.st22{fill:none;stroke:#F6921E;stroke-width:3;stroke-miterlimit:10;}
	.st23{fill:#1D252C;}
	.st24{fill:#00AB69;}
	.st25{fill:#1CE682;}
	.st26{fill:#622CA4;}
	.st27{fill:#622CA5;}
	.st28{fill:#632DA6;}
	.st29{fill:#F6921E;}
	.st30{fill:#4276FE;}
	.st31{fill:#25BF50;}
	.st32{fill:#25C050;}
	.st33{fill:#F0592A;}
	.st34{fill:#2784FC;}
	.st35{fill:url(#SVGID_00000064340146498456824560000009026241809116234116_);}
	.st36{fill:url(#SVGID_00000183250579702509406000000005419552209732152496_);}
	.st37{fill:#0DB2B1;}
	.st38{fill:#0EAEAE;}
	.st39{fill:#0EAFAE;}
	.st40{fill:url(#SVGID_00000098211252444592846130000002524129690566854805_);}
	.st41{fill:#FFFFFF;}
	.st42{fill:#E6522C;}
	.st43{fill:#008AB1;}
</style>
<path class="st0" d="M274.24,404.74c0.41,1.39,0.42,1.82,0.63,2.72c0.35,2-0.83,4.03-3.22,4.69c-0.41,0.1-4.09,0.94-6.13,1.42
	c-0.23-0.99-0.46-1.99-0.69-2.98c-0.57-2.45-0.65-2.26,1.7-2.83c1.73-0.42,2.02-1.37,0.83-2.65c-3.76-4.06-7.53-8.11-11.29-12.16
	c-4.48-4.82-8.95-9.65-13.45-14.45c-1.06-1.13-2.04-0.91-2.53,0.56c-0.46,1.38-0.83,2.79-1.28,4.17c-0.23,0.7,0.03,1.04,0.64,1.38
	c2.02,1.14,4.08,2.25,5.99,3.56c4.79,3.31,8.6,7.56,11.53,12.59c2.48,4.25,4.04,8.83,4.97,13.64c-4.82,1.12-9.65,2.23-14.47,3.35
	c-0.4-3.12-1.36-6.07-2.85-8.83c-2.26-4.2-5.46-7.5-9.57-9.93c-0.62-0.37-0.96-0.26-1.15,0.43c-0.16,0.59-0.32,1.18-0.54,1.75
	c-0.3,0.76-0.08,1.22,0.6,1.67c5.67,3.76,8.94,9.02,9.78,15.78c-4.99,1.15-9.99,2.31-14.98,3.46c-3.04,0.23-4.58-2.15-4.95-2.8
	s-0.69-1.42-0.63-2.72c0.06-1.31,1.19-4.32,1.76-6.48c0.21-0.78,0.59-1.1,1.38-0.74c1,0.46,2.01,0.91,3.01,1.38
	c0.76,0.35,1,0.91,0.66,1.71c-0.2,0.48-0.33,0.99-0.47,1.5c-0.45,1.63,0.22,2.33,1.9,1.97c1.45-0.31,2.9-0.66,4.34-1
	c1.2-0.28,1.27-0.43,0.68-1.52c-2.03-3.75-5.07-6.32-9.11-7.7c-0.54-0.18-0.97-0.33-0.74-1.08c1.29-4.2,2.55-8.41,3.81-12.62
	c0.19-0.65,0.56-0.84,1.18-0.57c2.07,0.92,4.25,1.65,6.2,2.79c5.99,3.5,10.36,8.49,13.06,14.9c0.91,2.15,0.9,2.16,3.19,1.59
	c1.1-0.28,1.19-0.38,0.82-1.42c-1.43-4.12-3.61-7.81-6.48-11.09c-4.24-4.85-9.44-8.25-15.55-10.27c-0.78-0.26-0.99-0.63-0.74-1.42
	c1.09-3.5,2.17-7.01,3.19-10.53c0.56-1.93,1.56-3.49,3.3-4.55c0.68-0.16,1.36-0.31,2.04-0.47c2.24,0.17,3.86,1.39,5.33,2.99
	c6.85,7.41,13.75,14.78,20.6,22.19C269.14,398.92,273.83,403.35,274.24,404.74z"/>
<g>
	<path class="st1" d="M460.8,309.98c8.43-0.11,15.25,6.61,15.39,14.91c0.14,8.44-6.59,15.3-14.91,15.45
		c-8.44,0.14-15.35-6.6-15.44-14.99C445.75,316.95,452.47,310.06,460.8,309.98z M462.44,328.97c-0.06-0.04-0.12-0.09-0.19-0.12
		c-0.69-0.31-1.31-0.73-1.86-1.24c-0.79-0.73-1.46-1.55-2.01-2.47c-0.35-0.58-0.65-1.19-0.98-1.79c0.06-0.08,0.1-0.17,0.18-0.24
		c0.58-0.56,1.18-1.11,1.76-1.68c0.06-0.06,0.11-0.19,0.09-0.28c-0.16-1.37-0.34-2.75-0.5-4.12c-0.02-0.17-0.09-0.23-0.25-0.23
		c-0.44-0.01-0.87-0.02-1.31-0.03c-1.37-0.03-2.73-0.06-4.1-0.1c-0.17,0-0.25,0.06-0.24,0.23c0.05,0.74,0.06,1.49,0.15,2.23
		c0.14,1.26,0.41,2.49,0.8,3.69c0.3,0.93,0.66,1.83,1.13,2.69c0.55,1.1,1.24,2.1,2.04,3.03c0.64,0.73,1.33,1.41,2.12,1.98
		c0.43,0.31,0.89,0.59,1.33,0.88c0.05,0.03,0.11,0.07,0.16,0.1c0.97,0.56,1.98,1,3.05,1.33c1.36,0.42,2.74,0.67,4.16,0.76
		c0.24,0.02,0.26-0.01,0.27-0.25c0.01-0.55,0.03-1.1,0.04-1.65c0.04-1.26,0.09-2.52,0.14-3.77c0.01-0.19-0.09-0.3-0.25-0.36
		c-0.09-0.04-0.19-0.06-0.29-0.08c-1.18-0.23-2.37-0.45-3.55-0.69c-0.15-0.03-0.23,0-0.32,0.12c-0.46,0.63-0.93,1.25-1.4,1.87
		C462.58,328.87,462.51,328.92,462.44,328.97z"/>
	<path class="st2" d="M455.11,325.52c-0.47-0.86-0.83-1.76-1.13-2.69c-0.39-1.2-0.66-2.44-0.8-3.69c-0.08-0.74-0.1-1.49-0.15-2.23
		c-0.01-0.17,0.06-0.23,0.24-0.23c1.37,0.04,2.73,0.07,4.1,0.1c0.44,0.01,0.87,0.02,1.31,0.03c0.16,0,0.23,0.06,0.25,0.23
		c0.16,1.37,0.34,2.75,0.5,4.12c0.01,0.09-0.03,0.22-0.09,0.28c-0.58,0.56-1.17,1.12-1.76,1.68c-0.07,0.07-0.12,0.16-0.18,0.24
		c-0.05,0.04-0.11,0.08-0.16,0.12c-0.63,0.63-1.26,1.26-1.89,1.88C455.29,325.42,455.19,325.47,455.11,325.52z"/>
	<path class="st2" d="M462.44,328.97c0.06-0.06,0.14-0.1,0.19-0.17c0.47-0.62,0.94-1.24,1.4-1.87c0.09-0.12,0.17-0.15,0.32-0.12
		c1.18,0.23,2.37,0.46,3.55,0.69c0.1,0.02,0.2,0.04,0.29,0.08c0.16,0.06,0.26,0.16,0.25,0.36c-0.05,1.26-0.1,2.52-0.14,3.77
		c-0.02,0.55-0.03,1.1-0.04,1.65c-0.01,0.24-0.03,0.26-0.27,0.25c-1.42-0.09-2.8-0.34-4.16-0.76c-1.07-0.33-2.09-0.77-3.05-1.33
		c-0.05-0.03-0.11-0.07-0.16-0.1c0.02-0.04,0.03-0.08,0.06-0.12c0.22-0.29,0.44-0.58,0.66-0.86
		C461.7,329.95,462.07,329.46,462.44,328.97z"/>
	<path class="st3" d="M462.44,328.97c-0.37,0.49-0.74,0.97-1.12,1.46c-0.22,0.29-0.44,0.57-0.66,0.86
		c-0.03,0.03-0.04,0.08-0.06,0.12c-0.44-0.29-0.9-0.57-1.33-0.88c-0.79-0.57-1.48-1.25-2.12-1.98c-0.81-0.92-1.5-1.93-2.04-3.03
		c0.08-0.05,0.18-0.09,0.25-0.16c0.63-0.62,1.26-1.25,1.89-1.88c0.05-0.05,0.11-0.08,0.16-0.12c0.33,0.6,0.63,1.21,0.98,1.79
		c0.55,0.92,1.22,1.74,2.01,2.47c0.55,0.51,1.17,0.94,1.86,1.24C462.32,328.88,462.38,328.93,462.44,328.97z"/>
</g>
<g>
	<path class="st4" d="M338.09,189.87c-0.03-0.02-0.07-0.04-0.1-0.06c0.01-0.01,0.01-0.01,0.02-0.02c0.05-0.01,0.11-0.01,0.16-0.03
		c0.72-0.19,1.3-0.6,1.82-1.11c0.63-0.62,1-1.39,1.21-2.24c0.14-0.58,0.24-1.17,0.33-1.76c0.21-1.24,0.41-2.48,0.59-3.73
		c0.17-1.12,0.31-2.23,0.45-3.35c0.06-0.49,0.11-0.98,0.16-1.47c0.05-0.44,0.11-0.87,0.14-1.31c0.1-1.39,0.21-2.77,0.29-4.16
		c0.15-2.58,0.22-5.16,0.18-7.74c-0.01-1.02-0.06-2.04-0.09-3.05c0-0.1,0.02-0.17,0.1-0.24c2.17-2.06,4.34-4.13,6.52-6.19
		c1.65-1.57,3.3-3.14,4.95-4.71c0.03-0.03,0.06-0.05,0.1-0.09c0.04,0.34,0.09,0.65,0.13,0.97c0.12,1.03,0.25,2.06,0.37,3.09
		c0.11,0.95,0.21,1.9,0.3,2.85c0.1,0.98,0.19,1.96,0.28,2.94c0.08,0.87,0.15,1.75,0.21,2.63c0.07,0.94,0.13,1.88,0.19,2.82
		c0.05,0.94,0.1,1.88,0.13,2.82c0.05,1.34,0.09,2.68,0.13,4.02c0,0.04,0.03,0.08,0.05,0.12c0,0.83,0,1.66,0,2.49
		c-0.02,0.02-0.05,0.04-0.05,0.06c-0.16,0.91-0.57,1.69-1.23,2.33c-0.87,0.85-1.76,1.69-2.64,2.54c-2.36,2.25-4.72,4.5-7.08,6.76
		c-1.18,1.13-2.37,2.25-3.53,3.39c-0.74,0.72-1.59,1.21-2.62,1.38c-0.03,0.01-0.06,0.04-0.08,0.06
		C339,189.87,338.55,189.87,338.09,189.87z"/>
	<path class="st5" d="M329.52,143.79c0.04,0.02,0.07,0.05,0.11,0.05c0.49,0.03,0.98,0.06,1.47,0.1c1.13,0.09,2.26,0.18,3.39,0.28
		c1.03,0.09,2.06,0.19,3.08,0.3c1.05,0.11,2.1,0.23,3.15,0.36c1.07,0.13,2.13,0.27,3.2,0.41c1.01,0.14,2.01,0.29,3.02,0.44
		c1.08,0.17,2.15,0.34,3.23,0.52c0.94,0.16,1.87,0.33,2.81,0.49c0.04,0.01,0.08,0.02,0.15,0.04c-0.09,0.08-0.16,0.15-0.24,0.22
		c-2.14,2.03-4.28,4.06-6.42,6.09c-1.65,1.56-3.29,3.12-4.94,4.68c-0.05,0.04-0.14,0.08-0.2,0.07c-1.62-0.17-3.24-0.28-4.86-0.35
		c-2.22-0.1-4.45-0.14-6.67-0.1c-1.54,0.03-3.08,0.09-4.62,0.14c-0.04,0-0.08,0.01-0.11,0.02c-0.2,0.01-0.39,0.01-0.59,0.02
		c-1,0.07-1.99,0.14-2.99,0.22c-0.78,0.06-1.56,0.14-2.33,0.22c-0.73,0.07-1.47,0.15-2.2,0.25c-0.78,0.1-1.57,0.17-2.35,0.32
		c-1.47,0.28-2.55,1.11-3.21,2.46c-0.06,0.12-0.09,0.24-0.14,0.36c0,0,0,0,0,0c-0.01,0.02-0.01,0.04-0.02,0.07
		c-0.03,0.03-0.06,0.06-0.09,0.09c0-0.07,0-0.14,0-0.2c0-0.01,0-0.02,0-0.03c0-0.33,0-0.66,0-0.98c0,0,0.01,0.01,0.01,0.01
		c0,0,0.01,0,0.01,0.01c0.01-0.03,0.03-0.05,0.03-0.08c0.15-0.98,0.61-1.8,1.32-2.48c0.83-0.8,1.67-1.59,2.5-2.39
		c1.65-1.57,3.3-3.13,4.94-4.69c1.88-1.79,3.77-3.57,5.64-5.37c0.78-0.75,1.62-1.33,2.71-1.49c0.02,0,0.03-0.03,0.04-0.05
		C328.75,143.79,329.13,143.79,329.52,143.79z"/>
	<path class="st6" d="M311.16,161.54c0.03-0.03,0.06-0.06,0.09-0.09c0.01-0.02,0.01-0.04,0.02-0.07c0,0,0,0,0,0
		c0.2-0.2,0.38-0.42,0.61-0.59c0.46-0.34,1.01-0.51,1.56-0.62c0.67-0.13,1.36-0.24,2.04-0.32c0.62-0.07,1.25-0.1,1.87-0.12
		c1.4-0.03,2.8,0,4.19,0.08c0.31,0.02,0.61,0.04,0.92,0.07c0.41,0.03,0.81,0.07,1.22,0.11c0.38,0.04,0.77,0.08,1.15,0.12
		c-0.08,1.15-0.17,2.3-0.23,3.45c-0.06,1.14-0.12,2.28-0.13,3.41c-0.02,1.52-0.02,3.03,0,4.55c0.01,0.78,0.06,1.55,0.08,2.33
		c0,0.06-0.03,0.14-0.07,0.19c-1.43,1.36-2.86,2.71-4.28,4.07c-1.27,1.21-2.54,2.41-3.81,3.62c-1.14,1.08-2.28,2.16-3.42,3.24
		c-0.02,0.02-0.04,0.04-0.08,0.07c-0.04-0.32-0.08-0.61-0.12-0.91c-0.13-1.09-0.27-2.17-0.39-3.26c-0.11-0.95-0.21-1.91-0.3-2.86
		c-0.1-1-0.19-2-0.28-3c-0.08-0.94-0.15-1.89-0.21-2.83c-0.08-1.32-0.16-2.64-0.22-3.96c-0.06-1.43-0.09-2.87-0.14-4.3
		c0-0.07-0.01-0.14-0.02-0.21c0,0-0.01-0.01-0.01-0.01c-0.01,0-0.02,0.01-0.02,0.02C311.16,162.99,311.16,162.27,311.16,161.54z"/>
	<path d="M311.16,161.31c0,0.01,0,0.02,0,0.03C311.16,161.33,311.16,161.32,311.16,161.31z"/>
	<path class="st7" d="M338.01,189.79c0,0.01-0.01,0.02-0.02,0.02c-7.83-0.46-15.59-1.41-23.33-2.89c0.05-0.05,0.08-0.09,0.11-0.12
		c2.06-1.96,4.13-3.92,6.19-5.89c1.49-1.41,2.97-2.83,4.46-4.24c0.27-0.26,0.54-0.51,0.81-0.77c0.07-0.07,0.14-0.09,0.24-0.08
		c0.82,0.08,1.64,0.16,2.46,0.22c0.66,0.05,1.33,0.09,1.99,0.12c2.35,0.12,4.71,0.15,7.06,0.12c0.73-0.01,1.46-0.03,2.19-0.05
		c0.02,0.33,0.05,0.66,0.06,0.99c0.02,0.7,0.05,1.4,0.06,2.09c0.01,1.24,0.01,2.49-0.08,3.73c-0.03,0.35-0.03,0.7-0.07,1.05
		c-0.06,0.55-0.12,1.1-0.2,1.65c-0.12,0.85-0.3,1.69-0.61,2.49c-0.14,0.35-0.31,0.68-0.54,0.99
		C338.59,189.5,338.31,189.66,338.01,189.79z"/>
	<path class="st8" d="M324.82,160.12c-0.38-0.04-0.76-0.08-1.15-0.12c-0.41-0.04-0.81-0.07-1.22-0.11
		c-0.31-0.03-0.61-0.05-0.92-0.07c-1.4-0.08-2.79-0.11-4.19-0.08c-0.62,0.01-1.25,0.05-1.87,0.12c-0.68,0.08-1.36,0.18-2.04,0.32
		c-0.55,0.11-1.1,0.29-1.56,0.62c-0.23,0.16-0.41,0.39-0.61,0.59c0.05-0.12,0.08-0.25,0.14-0.36c0.66-1.36,1.74-2.18,3.21-2.46
		c0.77-0.15,1.56-0.23,2.35-0.32c0.73-0.09,1.46-0.17,2.2-0.25c0.78-0.08,1.55-0.15,2.33-0.22c0.99-0.08,1.99-0.15,2.99-0.22
		c0.2-0.01,0.39-0.02,0.59-0.02c-0.06,0.58-0.12,1.16-0.17,1.74C324.86,159.56,324.84,159.84,324.82,160.12z"/>
	<path class="st9" d="M338.01,189.79c0.31-0.13,0.58-0.29,0.79-0.56c0.23-0.3,0.4-0.63,0.54-0.99c0.31-0.8,0.49-1.64,0.61-2.49
		c0.08-0.55,0.14-1.1,0.2-1.65c0.04-0.35,0.04-0.7,0.07-1.05c0.09-1.24,0.1-2.48,0.08-3.73c-0.01-0.7-0.03-1.4-0.06-2.09
		c-0.01-0.33-0.04-0.66-0.06-0.99c0.85-0.04,1.7-0.08,2.55-0.12c-0.05,0.49-0.09,0.98-0.16,1.47c-0.14,1.12-0.29,2.24-0.45,3.35
		c-0.18,1.24-0.39,2.49-0.59,3.73c-0.1,0.59-0.19,1.18-0.33,1.76c-0.21,0.85-0.58,1.62-1.21,2.24c-0.52,0.51-1.1,0.92-1.82,1.11
		C338.11,189.78,338.06,189.78,338.01,189.79z"/>
	<path class="st8" d="M311.26,161.39c-0.01,0.02-0.01,0.04-0.02,0.07C311.25,161.43,311.26,161.41,311.26,161.39z"/>
</g>
<line class="st10" x1="294.85" y1="275.54" x2="263.23" y2="342.17"/>
<linearGradient id="SVGID_1_" gradientUnits="userSpaceOnUse" x1="337.6192" y1="408.76" x2="402.4676" y2="408.76">
	<stop  offset="0" style="stop-color:#1B75BB"/>
	<stop  offset="1" style="stop-color:#2E3191"/>
</linearGradient>
<polygon class="st11" points="360.77,436.93 341.01,414.82 350.28,386.64 379.32,380.59 399.08,402.7 389.8,430.88 "/>
<linearGradient id="SVGID_00000099629751466160345000000017906956272509776053_" gradientUnits="userSpaceOnUse" x1="91.9728" y1="1061.2933" x2="160.0693" y2="993.1968" gradientTransform="matrix(-1 0 0 -1 371.7762 1424.4813)">
	<stop  offset="0" style="stop-color:#1B75BB"/>
	<stop  offset="1" style="stop-color:#2E3191"/>
</linearGradient>
<polygon style="fill:none;stroke:url(#SVGID_00000099629751466160345000000017906956272509776053_);stroke-width:8;stroke-miterlimit:10;" points="
	231.18,444.99 279.82,433.74 294.4,385.99 260.33,349.49 211.69,360.73 197.11,408.49 "/>
<polygon class="st13" points="436.08,217.64 390.44,228.19 376.76,272.99 408.72,307.24 454.36,296.69 468.04,251.89 "/>
<polygon class="st14" points="164.17,397.24 102.56,397.24 71.76,450.59 102.56,503.95 164.17,503.95 194.98,450.59 "/>
<polygon class="st15" points="449.35,410.58 395.45,410.58 368.49,457.26 395.45,503.95 449.35,503.95 476.31,457.26 "/>
<polygon class="st15" points="322.06,308.05 271,308.05 245.47,352.28 271,396.5 322.06,396.5 347.59,352.28 "/>
<polygon class="st16" points="141.11,148.02 75.05,148.02 42.02,205.23 75.05,262.44 141.11,262.44 174.14,205.23 "/>
<polygon class="st15" points="356.61,126.66 311.24,126.66 288.56,165.94 311.24,205.23 356.61,205.23 379.29,165.94 "/>
<polygon class="st15" points="476.72,297.87 445.31,297.87 429.6,325.07 445.31,352.28 476.72,352.28 492.43,325.07 "/>
<linearGradient id="SVGID_00000124160464624111583160000014274931995295347113_" gradientUnits="userSpaceOnUse" x1="246.0263" y1="577.3765" x2="304.5522" y2="476.0067" gradientTransform="matrix(0.9743 -0.2253 0.2253 0.9743 -111.9806 75.225)">
	<stop  offset="0" style="stop-color:#1B75BB"/>
	<stop  offset="1" style="stop-color:#26A9E0"/>
</linearGradient>
<polygon style="fill:none;stroke:url(#SVGID_00000124160464624111583160000014274931995295347113_);stroke-width:8;stroke-miterlimit:10;" points="
	290.64,474.79 238.12,486.94 222.38,538.49 259.16,577.9 311.68,565.76 327.42,514.2 "/>
<linearGradient id="SVGID_00000098215624778877288720000011831782860602308739_" gradientUnits="userSpaceOnUse" x1="94.2863" y1="337.7418" x2="161.9609" y2="220.526" gradientTransform="matrix(0.9743 -0.2253 0.2253 0.9743 -111.9806 75.225)">
	<stop  offset="0" style="stop-color:#2E3191"/>
	<stop  offset="1" style="stop-color:#1B75BB"/>
</linearGradient>
<polygon style="fill:none;stroke:url(#SVGID_00000098215624778877288720000011831782860602308739_);stroke-width:10;stroke-miterlimit:10;" points="
	93.82,259.11 33.51,273.06 15.43,332.26 57.66,377.52 117.97,363.57 136.05,304.37 "/>
<linearGradient id="SVGID_00000180334024706859555500000016134614898953002159_" gradientUnits="userSpaceOnUse" x1="286.4034" y1="192.8452" x2="359.2209" y2="66.7217" gradientTransform="matrix(0.9743 -0.2253 0.2253 0.9743 -111.9806 75.225)">
	<stop  offset="0" style="stop-color:#1B75BB"/>
	<stop  offset="1" style="stop-color:#2E3191"/>
</linearGradient>
<polygon style="fill:none;stroke:url(#SVGID_00000180334024706859555500000016134614898953002159_);stroke-width:11;stroke-miterlimit:10;" points="
	251.18,65.37 186.42,80.34 167.02,143.91 212.36,192.51 277.12,177.53 296.53,113.96 "/>
<linearGradient id="SVGID_00000158007191267512091500000009657258396719027081_" gradientUnits="userSpaceOnUse" x1="427.0072" y1="185.2086" x2="501.8998" y2="55.4907" gradientTransform="matrix(0.7071 -0.7071 0.7071 0.7071 -46.5577 334.4118)">
	<stop  offset="0" style="stop-color:#1B75BB"/>
	<stop  offset="1" style="stop-color:#26A9E0"/>
</linearGradient>
<polygon style="fill:none;stroke:url(#SVGID_00000158007191267512091500000009657258396719027081_);stroke-width:11;stroke-miterlimit:10;" points="
	349.22,24.89 300.75,73.35 318.49,139.56 384.7,157.3 433.17,108.83 415.43,42.63 "/>
<linearGradient id="SVGID_00000147214927251036587950000003021372763003862946_" gradientUnits="userSpaceOnUse" x1="659.9912" y1="985.4944" x2="725.1255" y2="872.6785" gradientTransform="matrix(-0.2975 -0.9729 0.9798 -0.2996 -181.434 1233.3901)">
	<stop  offset="0" style="stop-color:#1B75BB"/>
	<stop  offset="1" style="stop-color:#26A9E0"/>
</linearGradient>
<polygon style="fill:none;stroke:url(#SVGID_00000147214927251036587950000003021372763003862946_);stroke-width:10;stroke-miterlimit:10;" points="
	463.63,267.76 481.29,325.51 540.49,338.99 582.03,294.71 564.37,236.96 505.17,223.48 "/>
<circle class="st22" cx="179.6" cy="328.36" r="8.6"/>
<circle class="st22" cx="402.83" cy="355.98" r="7.57"/>
<circle class="st22" cx="250.94" cy="254.76" r="11.52"/>
<circle class="st10" cx="297.64" cy="264.02" r="11.52"/>
<circle class="st10" cx="196.59" cy="266.73" r="7.93"/>
<circle class="st10" cx="333.92" cy="442.66" r="7.93"/>
<line class="st10" x1="329.54" y1="449.27" x2="303.13" y2="475.67"/>
<line class="st10" x1="303.11" y1="408.28" x2="328.31" y2="437.07"/>
<line class="st10" x1="340.78" y1="438.02" x2="348.38" y2="430.43"/>
<line class="st10" x1="145.9" y1="297.87" x2="188.66" y2="272.53"/>
<line class="st10" x1="198.41" y1="258.8" x2="210.63" y2="201.85"/>
<line class="st10" x1="199.73" y1="275.54" x2="226.16" y2="350.81"/>
<line class="st10" x1="283.62" y1="185.34" x2="297.64" y2="252.5"/>
<line class="st10" x1="309.16" y1="264.02" x2="368.49" y2="271.21"/>
<line class="st22" x1="186.19" y1="209.78" x2="242.19" y2="247.29"/>
<line class="st22" x1="259.69" y1="247.27" x2="306.41" y2="210.77"/>
<line class="st22" x1="256.37" y1="264.92" x2="270.08" y2="300.31"/>
<line class="st22" x1="174.14" y1="321.71" x2="145.9" y2="272.53"/>
<line class="st22" x1="178.27" y1="336.96" x2="167.28" y2="387.14"/>
<line class="st22" x1="187.35" y1="332.06" x2="239.43" y2="352.28"/>
<line class="st22" x1="356.61" y1="352.28" x2="395.26" y2="355.98"/>
<line class="st22" x1="409.44" y1="352.28" x2="429.6" y2="338.92"/>
<line class="st22" x1="419.52" y1="401.01" x2="405.51" y2="363.06"/>
<g>
	<path class="st23" d="M107.93,237.15c-0.04-0.05-0.07-0.11-0.13-0.14c-2.07-1.2-4.15-2.41-6.22-3.61
		c-1.17-0.68-2.34-1.35-3.51-2.04c-0.07-0.04-0.11-0.15-0.14-0.23c-0.02-0.06,0-0.14,0-0.21c0-6.04,0-12.08,0-18.12
		c0-0.17-0.03-0.28-0.2-0.38c-2.54-1.46-5.07-2.93-7.6-4.4c-2.45-1.42-4.91-2.84-7.36-4.27c-0.34-0.2-0.69-0.39-1.04-0.58
		c0-3.91,0-7.82,0-11.73c0.06,0.02,0.12,0.04,0.17,0.08c3.1,1.79,6.2,3.59,9.3,5.38c0.22,0.13,0.46,0.24,0.69,0.36
		c0.07,0.05,0.13,0.11,0.2,0.15c0.74,0.43,1.48,0.86,2.22,1.29c2.34,1.35,4.67,2.7,7.01,4.05c2.16,1.25,4.32,2.51,6.48,3.75
		c0.22,0.13,0.29,0.26,0.29,0.51c-0.01,6.01-0.01,12.02,0,18.02c0,0.12,0,0.24,0,0.35c0,3.9,0,7.81,0,11.71c0,0.01,0,0.03,0,0.04
		C108.03,237.15,107.98,237.15,107.93,237.15z"/>
	<path class="st24" d="M108.08,237.12c0-3.9,0-7.81,0-11.71c0.09-0.05,0.18-0.1,0.27-0.15c2.95-1.7,5.89-3.41,8.84-5.11
		c2.31-1.33,4.61-2.67,6.92-4c0.12-0.07,0.16-0.14,0.16-0.27c0-6.13,0-12.26,0-18.39c0-0.07-0.03-0.13-0.04-0.2
		c0.09-0.05,0.19-0.08,0.28-0.14c1.29-0.75,2.59-1.49,3.88-2.24c1.64-0.95,3.28-1.89,4.91-2.84c0.35-0.21,0.7-0.42,1.05-0.64
		c0.03,0.01,0.05,0.02,0.08,0.04c0,10.16,0,20.32,0,30.48c-0.05,0.01-0.1,0.02-0.14,0.04c-1.01,0.58-2.01,1.17-3.02,1.75
		c-3.05,1.76-6.1,3.52-9.15,5.28c-4.07,2.35-8.13,4.7-12.2,7.05C109.32,236.42,108.7,236.76,108.08,237.12z"/>
	<path class="st25" d="M134.36,191.42c-0.35,0.21-0.7,0.43-1.05,0.64c-1.64,0.95-3.28,1.89-4.91,2.84
		c-1.29,0.75-2.59,1.49-3.88,2.24c-0.09,0.05-0.19,0.09-0.28,0.14c-0.85-0.48-1.7-0.96-2.54-1.45c-0.94-0.54-1.88-1.1-2.82-1.64
		c-0.95-0.55-1.91-1.09-2.86-1.65c-1.23-0.71-2.46-1.44-3.69-2.15c-1.36-0.79-2.73-1.58-4.09-2.37c-0.12-0.07-0.2-0.06-0.32,0
		c-0.89,0.52-1.79,1.04-2.68,1.56c-1.15,0.66-2.3,1.31-3.44,1.97c-1.42,0.82-2.83,1.64-4.24,2.46c-1.88,1.09-3.77,2.18-5.66,3.27
		c-0.23-0.12-0.46-0.23-0.69-0.36c-3.1-1.79-6.2-3.59-9.3-5.38c-0.05-0.03-0.12-0.05-0.17-0.08c0-0.03,0-0.05,0-0.08
		c0.05-0.02,0.11-0.02,0.16-0.05c0.84-0.48,1.67-0.96,2.5-1.44c1.37-0.79,2.73-1.59,4.1-2.38c1.49-0.86,2.98-1.71,4.47-2.57
		c1.72-0.99,3.44-1.99,5.16-2.99c1.56-0.9,3.12-1.8,4.68-2.7c1.69-0.97,3.37-1.95,5.06-2.93c0.04-0.02,0.07-0.08,0.1-0.12
		c0.07,0,0.13,0,0.2,0c0.03,0.04,0.06,0.08,0.09,0.11c0.2,0.12,0.4,0.25,0.6,0.36c1.2,0.69,2.39,1.38,3.59,2.07
		c1.69,0.98,3.39,1.96,5.08,2.94c1.52,0.88,3.03,1.76,4.54,2.64c1.77,1.02,3.55,2.04,5.32,3.06c1.07,0.62,2.14,1.24,3.22,1.86
		C131.86,189.97,133.11,190.69,134.36,191.42z"/>
</g>
<g>
	<path class="st26" d="M89.37,309.1c-0.67-0.26-1.27-0.25-1.87-0.17c-0.07,0.01-0.18-0.02-0.23-0.07c-0.23-0.2-0.47-0.38-0.66-0.61
		c-0.41-0.53-0.74-1.1-0.92-1.75c-0.08-0.31-0.05-0.59,0.13-0.87c0.21-0.33,0.21-0.35-0.17-0.5c-0.02-0.01-0.04-0.02-0.08-0.04
		c0.34-0.32,0.75-0.38,1.16-0.35c1.24,0.07,2.25,0.91,2.47,2.15C89.33,307.58,89.32,308.31,89.37,309.1z"/>
	<g>
		<path class="st27" d="M77.07,306.64c-0.37-0.11-0.75-0.16-1.11-0.23c-0.48,0.08-0.94,0.13-1.38,0.24c-0.8,0.2-1.53,0.53-2.09,1.16
			c-1.05,1.18-0.86,3.19,0.67,4.25c0.06,0.04,0.18,0.03,0.26-0.01c1.1-0.48,2.24-0.83,3.43-1.01c0.12-0.02,0.26-0.08,0.33-0.17
			c0.63-0.75,0.67-2.37-0.02-3.11c-0.3-0.32-0.28-0.43,0-0.75C77.34,306.82,77.34,306.71,77.07,306.64z"/>
		<path class="st27" d="M85.81,318.1c0.74,0.52,1.5,1.01,2.41,1.21c1.08,0.24,1.63,0.06,2.23-0.87c0.36-0.57,0.65-1.19,0.92-1.81
			c0.12-0.29,0.14-0.64,0.14-0.96c0-0.5-0.27-0.75-0.77-0.77c-0.16-0.01-0.33,0-0.49,0c0,0,0-0.01,0-0.01
			c-0.31,0.02-0.62,0.04-0.93,0.06c-1.28,0.11-2.52,0.37-3.71,0.86c-0.86,0.35-0.99,1.35-0.27,1.94
			C85.48,317.87,85.64,317.99,85.81,318.1z"/>
		<path class="st27" d="M105.43,319.32c-0.58,0.1-1.11,0.2-1.67,0.3c-0.11-1.12-0.21-2.19-0.31-3.26c-0.16-1.7-0.32-3.39-0.49-5.09
			c-0.18-1.89-0.36-3.77-0.55-5.66c-0.18-1.87-0.36-3.74-0.54-5.61c-0.18-1.88-0.36-3.75-0.54-5.63c-0.19-1.92-0.37-3.84-0.55-5.76
			c-0.05-0.55-0.08-1.1-0.12-1.64c-0.17,0-0.34,0-0.52,0c-0.05,0.03-0.09,0.09-0.14,0.09c-1.63,0.2-3.27,0.39-4.9,0.58
			c-1.89,0.22-3.78,0.43-5.67,0.65c-1.97,0.23-3.93,0.46-5.9,0.69c-2.17,0.25-4.35,0.51-6.52,0.76c-1.72,0.2-3.44,0.4-5.16,0.59
			c-1.88,0.22-3.77,0.43-5.65,0.65c-1.84,0.21-3.68,0.43-5.52,0.64c-1.85,0.21-3.7,0.42-5.54,0.64c-2.16,0.25-4.31,0.51-6.47,0.76
			c-0.61,0.07-1.23,0.14-1.86,0.21c0.01,0.15,0.02,0.27,0.03,0.39c0.18,1.48,0.36,2.96,0.54,4.43c0.23,1.91,0.47,3.81,0.7,5.72
			c0.23,1.88,0.46,3.76,0.69,5.64c0.23,1.9,0.47,3.79,0.7,5.69c0.23,1.89,0.47,3.78,0.7,5.67c0.25,2.03,0.5,4.07,0.75,6.1
			c0.23,1.9,0.47,3.79,0.7,5.69c0.23,1.89,0.46,3.78,0.69,5.67c0.23,1.9,0.47,3.79,0.7,5.69c0.12,0.97,0.24,1.93,0.35,2.9
			c0.02,0.18,0.09,0.22,0.25,0.19c0.06-0.01,0.12-0.01,0.18-0.02c1.75-0.25,3.49-0.5,5.24-0.76c0.21-0.03,0.43-0.07,0.68-0.11
			c-0.14-0.18-0.23-0.33-0.35-0.45c-0.71-0.71-1.39-1.47-2.15-2.12c-1.09-0.93-1.46-2.08-1.22-3.44c0.27-1.53,1-2.85,2.12-3.91
			c1.15-1.08,2.38-2.1,3.57-3.14c1.02-0.9,2.01-1.84,2.78-2.97c0.58-0.85,1.02-1.77,1.01-2.82c0-0.58-0.08-1.17-0.16-1.75
			c-0.17-1.15-0.48-2.26-1.18-3.22c-0.16-0.22-0.34-0.41-0.52-0.62c-0.02,0.01-0.05,0.02-0.07,0.03c0,0.32,0,0.63,0,0.95
			c-0.03,0.01-0.06,0.02-0.09,0.03c-0.22-0.45-0.49-0.88-0.63-1.34c-0.18-0.61-0.72-0.92-0.99-1.44c-0.03,0.01-0.06,0.01-0.09,0.02
			c-0.06,0.38-0.12,0.77-0.19,1.15c-0.02,0.01-0.04,0.01-0.06,0.02c-0.18-0.66-0.36-1.32-0.56-2.06c-0.12,0.43-0.23,0.79-0.33,1.15
			c-0.18-0.51-0.33-1.02-0.42-1.55c-0.13-0.72-0.14-1.45-0.4-2.16c-0.65-1.75-0.7-3.59-0.62-5.43c0-0.06,0.03-0.13,0.05-0.22
			c0.67,0.42,1.38,0.59,2.13,0.63c1.35,0.08,2.6-0.2,3.71-1.02c0.63-0.46,1.05-1.06,1.15-1.85c0.04-0.35,0.08-0.7,0.08-1.05
			c0-1.47-0.29-2.89-0.7-4.29c-0.71-2.41-1.75-4.69-2.79-6.97c-0.02-0.05-0.06-0.09-0.09-0.14c-0.04,0.1-0.02,0.19,0.01,0.27
			c0.31,1.05,0.64,2.09,0.92,3.15c0.46,1.7,0.94,3.41,1.08,5.17c0.09,1.17-0.08,2.31-0.8,3.29c-0.5,0.67-1.2,1.09-1.9,1.53
			c-0.96,0.61-1.93,0.58-2.94,0.16c-1.09-0.46-2-1.19-2.84-1.99c-1.2-1.13-2.15-2.44-2.73-4c-0.28-0.75-0.22-1.47,0.17-2.17
			c0.21-0.38,0.45-0.76,0.67-1.14c0.07-0.12,0.12-0.25,0.19-0.38c-0.02-0.02-0.03-0.03-0.05-0.05c-0.38,0.14-0.75,0.27-1.13,0.41
			c-0.02,0-0.04,0-0.07,0c0.01-0.01,0.02-0.02,0.03-0.03c0.1-0.11,0.19-0.22,0.3-0.31c0.81-0.64,1.62-1.28,2.43-1.92
			c0.07-0.06,0.15-0.12,0.22-0.19c-0.01-0.02-0.02-0.04-0.03-0.06c-0.33,0-0.67,0-1,0c0-0.02-0.01-0.04-0.01-0.06
			c0.68-0.31,1.35-0.62,2.03-0.93c0-0.02-0.01-0.05-0.01-0.07c-0.44,0-0.89,0-1.39,0c0.08-0.07,0.09-0.09,0.12-0.1
			c1.54-0.66,3.07-1.36,4.63-1.97c1.26-0.48,2.53-0.29,3.39,1.03c0.49,0.75,1.15,1.37,1.97,1.74c0.61,0.28,1.25,0.47,1.89,0.67
			c0.14,0.04,0.33,0.02,0.46-0.04c1.03-0.48,2.06-0.96,3.16-1.25c0.11-0.03,0.21-0.12,0.28-0.2c0.49-0.53,1.04-0.98,1.66-1.34
			c0.24-0.14,0.5-0.23,0.75-0.35c0.01,0.02,0.02,0.04,0.04,0.06c-0.28,0.37-0.56,0.75-0.63,1.26c0.56-0.38,1.09-0.74,1.61-1.1
			c-0.15,0.41-0.43,0.72-0.54,1.18c0.75-0.35,1.43-0.67,2.12-0.99c0.02,0,0.04,0,0.06,0c-0.01,0.02-0.01,0.03-0.02,0.05
			c-0.2,0.27-0.39,0.55-0.62,0.87c0.17,0,0.27,0,0.37,0c0.71,0.02,1.43,0,2.14,0.07c1.42,0.13,2.6-0.34,3.53-1.39
			c0.52-0.58,0.99-1.22,1.41-1.87c0.6-0.92,1.5-1.22,2.5-1.35c0.76-0.1,1.4,0.24,1.98,0.67c1.09,0.79,2.05,1.7,2.88,2.76
			c1.08,1.39,1.96,2.89,2.46,4.59c0.15,0.5,0.27,1.02,0.15,1.55c-0.11,0.51-0.5,0.77-1.01,0.67c-0.45-0.08-0.84-0.3-1.19-0.59
			c-2.03-1.67-3.54-3.67-4.06-6.31c-0.18-0.91-0.57-1.71-1.28-2.33c-0.01-0.01-0.02-0.02-0.03-0.03c0,0.02,0,0.04,0,0.07
			c0.15,0.5,0.36,1,0.43,1.51c0.12,0.78,0.13,1.58,0.22,2.36c0.12,1.1,0.36,2.16,0.99,3.09c0.02,0.04,0.06,0.08,0.05,0.11
			c-0.06,0.37-0.14,0.75-0.22,1.19c-1.16-1.26-2.58-1.98-4-2.69c0,0,0,0,0,0c-0.03-0.01-0.05-0.01-0.08-0.02
			c-0.02-0.01-0.03-0.03-0.05-0.04c0,0-0.01,0.01-0.02,0.01c0.02,0.01,0.03,0.02,0.05,0.04c0,0,0,0,0.01-0.01
			c0,0-0.01,0.01-0.01,0.01c0.02,0.02,0.03,0.03,0.05,0.05c0.01-0.01,0.01-0.02,0.02-0.03c-0.01,0.01-0.01,0.02-0.02,0.03
			c0.19,0.17,0.39,0.34,0.58,0.51c1.54,1.3,3.01,2.66,4.23,4.27c0.83,1.1,1.49,2.28,1.67,3.67c0.1,0.8,0.13,1.61,0.21,2.42
			c0.03,0.34,0.06,0.68,0.28,0.98c0.79,1.06,1.57,2.11,2.32,3.2c0.46,0.67,0.82,1.4,0.99,2.2c0.49,2.36,0.05,4.57-1.12,6.65
			c-0.04,0.08-0.17,0.14-0.26,0.16c-0.8,0.13-1.6,0.24-2.4,0.39c-0.59,0.11-1.09-0.1-1.59-0.35c0.2-0.47,0.39-0.9,0.58-1.33
			c0.09-0.2,0.03-0.35-0.12-0.51c-0.04,0.04-0.07,0.08-0.09,0.11c-0.82,1.08-1.81,1.99-2.94,2.73c-0.53,0.35-1.09,0.68-1.68,0.9
			c-1.53,0.57-3.08,0.45-4.61-0.09c-2.67-0.93-5.08-2.32-7.36-3.98c-0.06-0.04-0.12-0.08-0.19-0.12c-0.08,0.37,0.1,0.6,0.32,0.83
			c1.12,1.16,2.34,2.19,3.63,3.15c0.39,0.29,0.8,0.57,1.25,0.88c-1.48,0.16-2.9,0.32-4.36,0.48c0.69,5.39,1.37,10.76,2.05,16.14
			c-0.7,0.12-1.36,0.23-2.04,0.34c-0.04-0.11-0.07-0.2-0.1-0.29c-0.3-0.95-0.68-1.86-1.18-2.72c-0.82-1.4-1.88-2.58-3.28-3.41
			c-1.82-1.09-3.8-1.16-5.83-0.82c-0.06,0.01-0.12,0.06-0.18,0.1c0.1,0.06,0.18,0.05,0.27,0.06c0.54,0.02,1.09-0.02,1.62,0.07
			c2,0.31,3.67,1.18,4.86,2.87c1.2,1.71,2,3.58,2.43,5.62c0.3,1.41,0.3,2.81-0.25,4.16c-0.49,1.19-1.17,2.21-2.39,2.76
			c-1.56,0.71-3.16,0.82-4.78,0.28c-0.58-0.19-1.12-0.52-1.68-0.79c-0.01-0.01-0.02-0.02-0.04-0.03c0,0.02,0,0.04,0,0.06
			c0.25,0.33,0.47,0.68,0.75,0.99c0.69,0.77,1.51,1.33,2.57,1.46c0.84,0.1,1.68,0.14,2.52,0.01c2.02-0.32,3.52-1.33,4.27-3.3
			c0.55-1.45,0.73-2.95,0.69-4.49c-0.01-0.5-0.02-0.5,0.47-0.57c0.48-0.07,0.96-0.14,1.46-0.21c0.23,1.69,0.46,3.34,0.7,5.01
			c10.78-1.3,21.54-2.59,32.31-3.89C107.18,336.44,106.31,327.89,105.43,319.32z M105.23,342.24c-2.54,0.45-5.08,0.91-7.62,1.37
			c-3.52,0.63-7.05,1.26-10.57,1.9c-2.7,0.49-5.4,0.98-8.11,1.47c-0.65,0.12-1.3,0.23-2,0.35c-0.06-0.46-0.11-0.9-0.17-1.34
			c-0.2-1.69-0.4-3.38-0.6-5.08c-0.21-1.81-0.43-3.62-0.64-5.44c-0.22-1.82-0.44-3.64-0.65-5.46c-0.12-1.03-0.24-2.05-0.37-3.08
			c-0.02-0.18,0.03-0.25,0.21-0.27c1.24-0.16,2.47-0.34,3.71-0.5c0.11-0.01,0.24,0.03,0.35,0.07c1.09,0.39,2.19,0.74,3.35,0.8
			c1.5,0.08,2.84-0.36,3.97-1.36c0.33-0.3,0.63-0.63,0.96-0.94c0.09-0.08,0.21-0.14,0.33-0.16c1.74-0.32,3.49-0.63,5.23-0.95
			c2.42-0.44,4.84-0.88,7.27-1.32c1.26-0.23,2.52-0.46,3.79-0.68c0.03-0.01,0.07,0,0.14,0c0.06,0.66,0.11,1.3,0.16,1.94
			c0.15,1.84,0.3,3.69,0.45,5.53c0.13,1.58,0.25,3.16,0.38,4.74c0.13,1.59,0.26,3.17,0.39,4.76c0.09,1.12,0.18,2.23,0.27,3.35
			C105.49,342.14,105.42,342.21,105.23,342.24z"/>
	</g>
	<path class="st28" d="M103.86,340.89c-8.57,1.58-17.07,3.14-25.62,4.72c-0.08-0.72-0.16-1.42-0.21-2.12
		c-0.01-0.14,0.07-0.3,0.15-0.42c1.45-2.21,2.9-4.42,4.34-6.63c0.16-0.25,0.31-0.26,0.56-0.19c1.51,0.45,3.03,0.87,4.54,1.34
		c0.37,0.12,0.51,0,0.68-0.29c1.36-2.28,2.73-4.56,4.1-6.84c0.08-0.13,0.16-0.26,0.29-0.44c1.83,1.2,3.64,2.4,5.5,3.63
		c1.37-2.85,2.72-5.67,4.07-8.48c0.06,0.01,0.11,0.03,0.17,0.04C102.9,330.41,103.38,335.61,103.86,340.89z"/>
</g>
<g>
	<path class="st29" d="M154.52,438.9c0-0.07,0.01-0.14,0.01-0.21c0-4.91-3.74-8.89-8.34-8.89c-2.29,0-4.36,0.98-5.86,2.57
		c-2.12-7.04-8.65-12.16-16.38-12.16c-9.45,0-17.1,7.66-17.1,17.1c0,0.58,0.03,1.15,0.09,1.71c-5.24,1.29-9.14,6.17-9.14,12
		c0,6.81,5.32,12.33,11.89,12.33h13.46v-1.2h-8.34h-4.76c-0.12,0-0.24-0.01-0.36-0.01c-5.98-0.19-10.77-5.1-10.77-11.12
		c0-5.13,3.47-9.45,8.2-10.74c0.54-0.15,1.1-0.25,1.66-0.32c-0.07-0.4-0.13-0.81-0.16-1.22c-0.04-0.47-0.07-0.95-0.07-1.43
		c0-8.51,6.9-15.41,15.41-15.41c7.42,0,13.62,5.25,15.08,12.24c0.09,0.45,0.17,0.91,0.22,1.38c0.35-0.76,0.81-1.46,1.36-2.06
		c1.36-1.49,3.27-2.41,5.39-2.41c4.07,0,7.38,3.43,7.49,7.7c0,0.07,0.01,0.15,0.01,0.22c0,0.36-0.03,0.71-0.07,1.06
		c0.33,0.03,0.66,0.08,0.98,0.15c5.24,1.01,9.2,5.61,9.2,11.14c0,5.5-1.79,9.81-6.99,10.84c-0.15,1,0,0-0.15,1
		c6.23-0.77,8.41-5.4,8.41-11.84C164.87,445.12,160.41,439.97,154.52,438.9z"/>
	<g>
		<path class="st29" d="M164.44,474.69l-10.71-10.71c0.03-0.05,0.05-0.09,0.08-0.14c0.25-0.45,0.47-0.92,0.66-1.4
			c0.64-1.57,1-3.29,1-5.1c0-4.22-1.93-7.99-4.96-10.47c-0.14-0.11-0.28-0.22-0.42-0.33c-0.23-0.18-0.47-0.34-0.72-0.5
			c-1.69-1.11-3.63-1.85-5.73-2.11c-0.51-0.06-1.02-0.1-1.55-0.11c-0.05,0-0.09,0-0.14,0c-0.61,0-1.21,0.04-1.79,0.12
			c-0.16,0.02-0.32,0.04-0.47,0.07c-0.05,0.01-0.1,0.02-0.15,0.03c-0.68,0.12-1.35,0.3-1.99,0.52c-3.47,1.19-6.29,3.76-7.84,7.04
			c-0.31,0.66-0.57,1.35-0.77,2.07c-0.33,1.17-0.51,2.4-0.51,3.67c0,1.69,0.31,3.31,0.88,4.81c1.94,5.09,6.87,8.71,12.64,8.71
			c2.38,0,4.62-0.62,6.57-1.7l10.72,10.72c1.44,1.44,3.77,1.44,5.2,0C165.88,478.46,165.88,476.13,164.44,474.69z M147.5,468.16
			c-1.67,0.86-3.55,1.34-5.55,1.34c-5,0-9.3-3.02-11.16-7.34c-0.64-1.48-0.99-3.1-0.99-4.81c0-1.5,0.27-2.93,0.77-4.26
			c0.34-0.92,0.79-1.78,1.34-2.58c1.1-1.62,2.58-2.95,4.31-3.88c0.85-0.45,1.75-0.81,2.71-1.06c0.54-0.14,1.1-0.24,1.67-0.3
			c0.2-0.02,0.4-0.04,0.61-0.05c0.06,0,0.12-0.01,0.17-0.01c0.19-0.01,0.38-0.01,0.58-0.01c0.25,0,0.49,0.01,0.74,0.02
			c1.83,0.11,3.55,0.62,5.07,1.45c0.3,0.16,0.58,0.34,0.87,0.52c0.68,0.45,1.31,0.96,1.89,1.53c2.22,2.2,3.59,5.25,3.59,8.63
			c0,1.9-0.44,3.7-1.21,5.3c-0.05,0.11-0.11,0.22-0.17,0.33c-0.17,0.33-0.36,0.65-0.56,0.97c-0.01,0.02-0.02,0.03-0.03,0.05
			c-0.93,1.43-2.16,2.65-3.6,3.58C148.2,467.78,147.86,467.98,147.5,468.16z M163.86,479.06l-0.24,0.24c-0.92,0.92-2.42,0.92-3.34,0
			l-10.75-10.75c1.41-0.96,2.63-2.17,3.59-3.58l10.74,10.74C164.78,476.64,164.78,478.14,163.86,479.06z"/>
		<path class="st29" d="M140.93,450.61c-0.44,0.02-0.87,0.09-1.29,0.19c-2.93,0.74-5.11,3.39-5.11,6.55c0,1.45,0.46,2.79,1.23,3.89
			l0.71-0.71c-0.6-0.91-0.95-2-0.95-3.18c0-2.61,1.74-4.82,4.11-5.53c0.41-0.12,0.83-0.2,1.27-0.22c0.13-0.01,0.26-0.02,0.39-0.02
			c1.17,0,2.26,0.35,3.18,0.95l0.71-0.71c-1.1-0.77-2.44-1.23-3.89-1.23C141.18,450.59,141.05,450.6,140.93,450.61z"/>
	</g>
</g>
<path class="st30" d="M272.21,550.7c-6.2,1.66-12.39,3.32-18.59,4.98c-1.87,0.5-2.39,0.22-2.83-1.68c-2.29-9.97,0.1-18.81,6.6-26.58
	c1.46-1.74,3.26-3.2,4.86-4.83c0.44-0.45,0.87-1.01,1.07-1.59c2.18-6.65,6.22-11.96,11.65-16.27c5.01-3.98,10.46-7.25,16.27-9.92
	c0.81-0.37,1.65-0.7,2.48-1.05c1.42-0.59,2.27-0.17,2.68,1.35c2.02,7.54,4.04,15.09,6.07,22.63c0.73,2.73,1.5,5.45,2.16,8.19
	c0.13,0.55,0.06,1.32-0.25,1.76c-3.83,5.59-7.73,11.12-11.57,16.7c-0.54,0.78-1.25,1.13-2.1,1.36
	C284.54,547.39,278.38,549.05,272.21,550.7z M291.77,540.53c0.46-0.59,0.73-0.91,0.97-1.26c2.8-4.04,5.62-8.07,8.38-12.13
	c0.27-0.4,0.39-1.06,0.27-1.52c-2.29-8.71-4.63-17.41-6.97-26.11c-0.07-0.26-0.19-0.51-0.33-0.89c-0.29,0.38-0.48,0.6-0.65,0.84
	c-2.78,4.01-5.54,8.04-8.37,12.02c-0.58,0.82-0.72,1.51-0.46,2.47c2.28,8.37,4.51,16.75,6.76,25.13
	C291.48,539.45,291.58,539.83,291.77,540.53z M256.06,551.88c0.48-0.06,0.63-0.07,0.78-0.11c10.56-2.83,21.12-5.66,31.68-8.47
	c0.72-0.19,0.77-0.53,0.6-1.15c-0.78-2.82-1.55-5.64-2.26-8.47c-0.21-0.83-0.54-0.94-1.31-0.72c-6.41,1.75-12.84,3.45-19.25,5.2
	c-0.46,0.13-0.97,0.46-1.25,0.85c-1.94,2.69-3.82,5.42-5.72,8.15C258.3,548.63,257.27,550.13,256.06,551.88z M281.61,514.4
	c-0.46,0.2-0.86,0.36-1.25,0.53c-5.03,2.27-9.77,5.04-14.15,8.41c-0.29,0.22-0.57,0.58-0.64,0.93c-0.75,3.28-0.72,6.57-0.17,9.87
	c0.14,0.85,0.41,1.09,1.3,0.84c6.02-1.65,12.05-3.26,18.09-4.85c0.78-0.21,1-0.48,0.77-1.29c-1.25-4.51-2.44-9.04-3.66-13.56
	C281.83,515,281.72,514.73,281.61,514.4z M253.21,550.59c0.25-0.27,0.43-0.42,0.55-0.6c2.96-4.24,5.93-8.49,8.87-12.75
	c0.17-0.25,0.16-0.68,0.13-1.02c-0.22-2.41-0.49-4.81-0.69-7.21c-0.06-0.67,0.04-1.35,0.07-2.15
	C256.17,531.89,251.63,541.26,253.21,550.59z M290.18,498.97c-0.06-0.07-0.12-0.14-0.19-0.21c-0.28,0.13-0.57,0.23-0.83,0.39
	c-3.28,2-6.62,3.9-9.81,6.04c-3.91,2.63-7.34,5.8-9.92,9.79c-0.72,1.11-1.35,2.29-2.02,3.44c0.07,0.05,0.15,0.1,0.22,0.15
	c0.16-0.1,0.33-0.19,0.49-0.29c4.1-2.66,8.35-5.02,12.88-6.87c0.48-0.2,0.93-0.63,1.24-1.06c1.87-2.62,3.7-5.27,5.53-7.91
	C288.58,501.29,289.38,500.13,290.18,498.97z"/>
<g>
	<path class="st31" d="M195.52,129.02c0.06-0.13,0.17-0.26,0.17-0.38c-0.23-4.87,2.95-8.54,7.2-9.8c4.17-1.24,8.39-2.36,12.62-3.37
		c5.16-1.23,10,1.62,11.45,6.72c1.4,4.91,2.72,9.85,3.96,14.81c1.41,5.62-1.57,10.53-7.24,12.07c-4.4,1.2-8.81,2.37-13.22,3.55
		c-0.28,0.08-0.56,0.15-0.93,0.25c1.08,4.02,2.14,7.97,3.23,12.06c-2.43,0.65-4.77,1.28-7.12,1.91
		C202.28,154.22,198.9,141.62,195.52,129.02z M207.65,145.74c0.31-0.08,0.57-0.15,0.82-0.22c2.69-0.72,5.37-1.44,8.06-2.16
		c1.76-0.47,3.53-0.92,5.28-1.42c1.82-0.52,2.36-1.42,2-3.26c-0.06-0.29-0.13-0.58-0.21-0.86c-1.13-4.23-2.26-8.46-3.4-12.68
		c-0.67-2.51-1.53-3.01-4.02-2.34c-3.57,0.95-7.13,1.91-10.7,2.87c-0.39,0.11-0.78,0.25-1.15,0.43c-0.98,0.48-1.43,1.33-1.29,2.41
		c0.04,0.34,0.13,0.67,0.22,1c1.38,5.15,2.76,10.31,4.14,15.46C207.46,145.19,207.55,145.42,207.65,145.74z"/>
	<path class="st32" d="M268.02,128.86c-0.06,0.11-0.18,0.22-0.17,0.32c0.3,4.45-2.44,8.5-7.43,9.98c-4.15,1.23-8.35,2.35-12.57,3.31
		c-5.1,1.16-9.83-1.69-11.26-6.73c-1.41-4.94-2.74-9.89-3.98-14.87c-1.38-5.57,1.58-10.43,7.19-11.97
		c4.47-1.22,8.94-2.42,13.42-3.58c0.69-0.18,0.79-0.42,0.61-1.07c-0.97-3.49-1.88-7.01-2.84-10.5c-0.16-0.6-0.06-0.83,0.56-0.99
		c2.12-0.54,4.23-1.13,6.34-1.71C261.27,103.65,264.65,116.26,268.02,128.86z M255.98,112.12c-0.37,0.1-0.61,0.16-0.85,0.23
		c-4.32,1.16-8.63,2.31-12.95,3.47c-0.13,0.04-0.26,0.07-0.4,0.11c-1.89,0.56-2.43,1.46-2.04,3.36c0.05,0.22,0.11,0.44,0.16,0.66
		c1.15,4.29,2.3,8.59,3.45,12.88c0.11,0.39,0.23,0.79,0.4,1.16c0.44,1.03,1.1,1.44,2.2,1.34c0.5-0.04,0.99-0.14,1.47-0.27
		c3.5-0.93,7-1.87,10.5-2.81c0.13-0.04,0.26-0.07,0.4-0.11c1.86-0.55,2.49-1.63,2.06-3.51c-0.04-0.16-0.08-0.31-0.12-0.46
		c-1.36-5.06-2.71-10.13-4.07-15.19C256.14,112.73,256.07,112.47,255.98,112.12z"/>
</g>
<path class="st33" d="M382.17,60.34c-0.98,0.56-1.9,1.07-2.81,1.59c-3.41,1.93-6.82,3.87-10.24,5.8c-4.49,2.54-8.99,5.07-13.48,7.61
	c-1.33,0.75-2.66,1.52-4,2.27c-0.76,0.43-1.54,0.84-2.31,1.25c-0.23,0.12-0.28,0.31-0.28,0.55c-0.02,1.92-0.04,3.85-0.07,5.77
	c-0.01,0.74-0.09,1.47-0.1,2.21c-0.01,1.21,0.02,2.42,0.03,3.62c0,0.59-0.01,1.17-0.02,1.86c4.22-2.39,8.39-4.73,12.61-7.12
	c-0.01,1.08-0.01,2.09-0.02,3.11c-0.03,3.2-0.06,6.39-0.09,9.59c-0.01,1.03-0.01,2.06-0.04,3.08c0,0.14-0.09,0.31-0.19,0.4
	c-2.24,1.71-4.47,3.44-6.74,5.1c-2.24,1.63-4.57,3.12-7.03,4.4c-2.52,1.3-5.14,2.31-7.96,2.76c-2.49,0.39-4.98,0.37-7.47,0.08
	c-3.49-0.4-6.85-1.37-10.18-2.45c-0.16-0.05-0.31-0.12-0.43-0.17c1.21-0.26,2.44-0.47,3.64-0.79c2.82-0.74,5.43-1.92,7.63-3.88
	c2.16-1.93,3.5-4.32,3.85-7.2c0.19-1.54,0.23-3.1,0.31-4.65c0.17-3.39,0.33-6.78,0.5-10.17c0.15-3.08,0.31-6.17,0.43-9.25
	c0.08-2.25,0.43-4.44,1.33-6.52c0.64-1.47,1.45-2.84,2.51-4.06c1.28-1.48,2.67-2.8,4.32-3.85c2.71-1.72,5.67-2.81,8.81-3.45
	c3.89-0.8,7.82-0.9,11.77-0.6c2.86,0.22,5.7,0.62,8.5,1.25c2.33,0.52,4.63,1.18,6.94,1.78C381.95,60.27,382.02,60.29,382.17,60.34z"
	/>
<path class="st33" d="M372.38,95.48c0.01-1.15,0.02-2.3,0.03-3.45c0.04-4.08,0.08-8.15,0.13-12.23c0-0.15,0.1-0.35,0.22-0.45
	c3.45-2.73,6.94-5.41,10.69-7.72c2.64-1.63,5.38-3.04,8.37-3.9c3.46-1,6.98-1.07,10.53-0.62c3.47,0.44,6.81,1.43,10.12,2.51
	c0.03,0.01,0.06,0.03,0.12,0.06c-0.79,0.14-1.55,0.26-2.3,0.42c-2.46,0.51-4.79,1.34-6.93,2.66c-2.27,1.4-4.08,3.25-5.13,5.74
	c-0.64,1.51-0.92,3.09-0.99,4.72c-0.22,4.95-0.46,9.91-0.7,14.86c-0.15,3.05-0.24,6.1-0.47,9.14c-0.28,3.69-1.77,6.9-4.26,9.63
	c-2.59,2.84-5.82,4.65-9.44,5.81c-3.48,1.12-7.07,1.55-10.72,1.58c-2.5,0.02-5-0.12-7.47-0.5c-2.3-0.35-4.59-0.79-6.86-1.29
	c-1.75-0.38-3.46-0.9-5.19-1.36c-0.11-0.03-0.23-0.07-0.43-0.13c0.43-0.25,0.79-0.47,1.15-0.68c4.41-2.49,8.81-4.99,13.22-7.48
	c4.08-2.31,8.15-4.61,12.23-6.91c1.16-0.66,2.34-1.29,3.5-1.94c0.95-0.54,1.88-1.09,2.82-1.64c0.1-0.06,0.19-0.22,0.2-0.34
	c0.05-3.15,0.09-6.3,0.12-9.44c0.01-1.22,0.02-2.45,0.03-3.67c0-0.27-0.01-0.4-0.35-0.21c-3.61,2.05-7.24,4.09-10.86,6.12
	C373.32,95.03,372.87,95.24,372.38,95.48z"/>
<g>
	<path class="st34" d="M518.62,251.72c0.33,0,0.53,0,0.73,0c9.87,0,19.74,0,29.61,0.01c1.77,0,2.87,1.08,2.88,2.84
		c0.01,9.85,0.01,19.7,0.01,29.55c0,0.18-0.02,0.36-0.04,0.68c-1.02-0.13-2.01-0.19-2.97-0.4c-6.32-1.4-10.76-6.95-10.78-13.42
		c-0.01-1.61-0.02-3.22,0.01-4.82c0.01-0.49-0.15-0.63-0.63-0.63c-2.01,0.01-4.03,0.05-6.04-0.05c-6.34-0.31-11.89-5.58-12.61-11.91
		C518.71,252.98,518.68,252.4,518.62,251.72z"/>
	
		<linearGradient id="SVGID_00000171698328299911274640000014807277636952352140_" gradientUnits="userSpaceOnUse" x1="495.3909" y1="308.235" x2="519.5378" y2="284.0881">
		<stop  offset="0" style="stop-color:#2784FC"/>
		<stop  offset="1" style="stop-color:#135990"/>
	</linearGradient>
	<path style="fill:url(#SVGID_00000171698328299911274640000014807277636952352140_);" d="M488.47,282.13c0.27,0,0.46,0,0.66,0
		c9.83,0,19.66-0.01,29.5-0.01c1.92,0,3,1.06,3,2.97c0,9.77-0.01,19.54-0.02,29.31c0,0.2,0,0.4,0,0.66
		c-1.09,0.15-2.13-0.05-3.15-0.29c-5.48-1.3-9.65-5.75-10.41-11.33c-0.28-2.08-0.15-4.22-0.21-6.33c-0.01-0.36,0-0.73,0-1.18
		c-0.29,0-0.5,0-0.72,0c-1.67,0-3.34,0-5.01-0.01c-3.33-0.01-6.27-1.1-8.79-3.25c-3.03-2.59-4.66-5.89-4.86-9.89
		C488.46,282.59,488.47,282.39,488.47,282.13z"/>
	
		<linearGradient id="SVGID_00000152256247272624175690000000152901756035824285_" gradientUnits="userSpaceOnUse" x1="517.2104" y1="286.3254" x2="535.9068" y2="267.6291">
		<stop  offset="0" style="stop-color:#2784FC"/>
		<stop  offset="1" style="stop-color:#135990"/>
	</linearGradient>
	<path style="fill:url(#SVGID_00000152256247272624175690000000152901756035824285_);" d="M536.73,299.94
		c-3.15-0.05-5.92-0.94-8.33-2.81c-3.57-2.77-5.38-6.44-5.46-10.95c-0.03-1.57-0.01-3.13-0.01-4.7c0-0.22,0-0.44,0-0.74
		c-0.28,0-0.5,0-0.71,0c-2.05-0.02-4.12,0.06-6.16-0.09c-5.9-0.45-10.9-4.87-12.17-10.67c-0.21-0.96-0.28-1.95-0.43-3.02
		c0.36,0,0.58,0,0.79,0c9.59,0,19.18-0.01,28.76-0.01c0.64,0,1.3,0.03,1.92,0.15c0.94,0.19,1.73,1.26,1.8,2.31
		c0.01,0.12,0.01,0.24,0.01,0.37c-0.01,9.83-0.01,19.66-0.02,29.5C536.73,299.46,536.73,299.66,536.73,299.94z"/>
</g>
<g>
	<path class="st37" d="M433.02,238.31c1.04,0.43,1.91,1.18,2.72,2.05c4.75,5.1,9.46,10.26,14.14,15.43
		c1.99,2.19,2.75,4.83,1.89,7.74c-2.09,7.07-4.25,14.13-6.46,21.16c-0.86,2.75-2.8,4.54-5.51,5.25c-4.34,1.14-8.71,2.14-13.08,3.19
		c-0.28,0.07-0.58,0.06-1.08,0.1c0.4-0.55,0.66-0.89,0.9-1.25c1.47-2.2,1.45-4.58-0.04-6.6c-0.43-0.58-0.81-0.75-1.43-0.15
		c-0.3,0.29-0.88,0.49-1.29,0.44c-3.99-0.45-7.79-1.6-11.34-3.47c-0.38-0.2-0.67-0.74-0.83-1.19c-0.21-0.6-0.51-0.78-1.09-0.61
		c-1.96,0.54-3.55,2.37-3.77,4.45c-0.09,0.84-0.07,1.7-0.11,2.67c-0.27-0.26-0.47-0.42-0.64-0.61c-2.92-3.19-5.81-6.4-8.75-9.58
		c-2.25-2.43-2.95-5.19-1.95-8.43c2.02-6.54,4.07-13.07,5.97-19.64c1.1-3.8,3.48-5.84,7.19-6.66c4.83-1.06,9.61-2.35,14.43-3.44
		c2.73-0.62,5.4-1.72,8.27-1.43C431.19,237.74,431.98,237.88,433.02,238.31z M427.88,279.75c4.25,1.2,7.38,0.2,8.92-4.36
		c1.73-5.15,3.24-10.39,4.72-15.62c0.21-0.76-0.02-1.84-0.42-2.54c-2.5-4.27-6.26-6.99-10.8-8.64c-5.1-1.86-10.25-2.06-15.43-0.09
		c-1.35,0.51-2.46,1.27-2.92,2.75c-1.52,4.98-3.09,9.95-4.55,14.94c-1.15,3.94,0.08,6.83,3.78,8.3
		C414.08,275.64,425.28,279.01,427.88,279.75z M443.2,261.55c-0.13,0-0.27,0.01-0.4,0.01c-0.11,0.35-0.21,0.7-0.32,1.04
		c-1.4,4.56-2.73,9.15-4.22,13.68c-1.39,4.24-5.12,6.42-9.37,5.45c-2.79-0.63-5.53-1.52-8.28-2.36c-3.43-1.05-6.89-2.04-10.24-3.31
		c-3.96-1.49-5.86-5.29-4.73-9.48c1.27-4.7,2.77-9.34,4.18-14.01c0.1-0.33,0.2-0.66,0.3-1c-0.08-0.05-0.17-0.1-0.25-0.15
		c-0.47,0.53-1,1.01-1.4,1.6c-1.67,2.44-2.66,5.21-3.58,8c-1.23,3.73-1.86,7.52-1.02,11.4c0.58,2.7,1.91,4.96,4.6,5.84
		c6.7,2.18,13.43,4.23,20.17,6.27c1.94,0.59,3.87,0.36,5.69-0.68c2.73-1.56,4.45-4.04,5.76-6.8c1.83-3.86,2.88-7.96,3.24-12.21
		C443.44,263.76,443.26,262.65,443.2,261.55z"/>
	<path class="st38" d="M432.71,274.86c-0.38,1.32-1.7,2.24-2.81,1.96c-1.13-0.29-1.81-1.84-1.4-3.2c0.4-1.32,1.71-2.23,2.82-1.94
		C432.46,271.98,433.11,273.46,432.71,274.86z"/>
	<path class="st39" d="M415.24,269.61c-0.43,1.33-1.76,2.21-2.85,1.86c-1.11-0.35-1.74-1.93-1.29-3.25
		c0.45-1.33,1.77-2.18,2.87-1.84C415.11,266.74,415.69,268.21,415.24,269.61z"/>
</g>
<linearGradient id="SVGID_00000062177649845267011680000013502759919936678321_" gradientUnits="userSpaceOnUse" x1="422.399" y1="485.5349" x2="422.399" y2="429.1888">
	<stop  offset="0" style="stop-color:#F9BC0D"/>
	<stop  offset="1" style="stop-color:#F05B27"/>
</linearGradient>
<path style="fill:url(#SVGID_00000062177649845267011680000013502759919936678321_);" d="M424.95,426.61
	c0.06,0.04,0.11,0.09,0.17,0.12c2.38,1.38,4.16,3.3,5.15,5.9c0.01,0.03,0.03,0.06,0.03,0.09c0.04,0.36,0.27,0.47,0.61,0.52
	c1.88,0.28,3.7,0.81,5.45,1.56c0.18,0.08,0.3,0.06,0.46-0.05c1.23-0.81,2.59-1.26,4.05-1.39c0.56-0.05,1.13-0.03,1.7-0.05
	c0.13,0,0.2,0.05,0.26,0.16c1.01,1.91,1.43,3.92,0.98,6.07c-0.03,0.15,0,0.24,0.1,0.34c0.8,0.85,1.6,1.7,2.28,2.65
	c2.06,2.87,3.47,6.01,4.05,9.5c0.21,1.28,0.28,2.58,0.32,3.87c0.01,0.28-0.12,0.46-0.33,0.5c-0.26,0.05-0.49-0.11-0.58-0.39
	c-0.25-0.8-0.48-1.61-0.75-2.4c-0.19-0.57-0.41-1.13-0.67-1.67c-1.05-2.17-2.35-4.17-4.01-5.94c-2.33-2.47-5.08-4.28-8.26-5.42
	c-1.58-0.57-3.22-0.9-4.89-1.01c-1.01-0.07-2.04-0.11-3.05-0.07c-0.94,0.04-1.88,0.22-2.81,0.35c-0.34,0.05-0.69,0.09-1.03,0.18
	c-2.07,0.55-4.1,1.22-5.91,2.39c-1.43,0.92-2.65,2.09-3.69,3.44c-1.74,2.27-2.93,4.81-3.65,7.58c-0.55,2.13-0.83,4.29-0.72,6.49
	c0.14,2.72,0.98,5.23,2.4,7.55c1.8,2.96,4.26,5.2,7.4,6.69c1.82,0.87,3.75,1.36,5.75,1.58c1.05,0.12,2.1,0.14,3.14,0
	c2.89-0.4,5.38-1.64,7.45-3.7c1.26-1.25,2.24-2.69,2.88-4.36c0.59-1.55,0.87-3.16,0.85-4.83c-0.03-2.27-0.73-4.3-2.14-6.06
	c-1.69-2.11-3.91-3.35-6.6-3.7c-1.83-0.24-3.56,0.1-5.15,1.05c-2.05,1.23-3.27,3.06-3.73,5.4c-0.28,1.4-0.2,2.77,0.43,4.06
	c0.99,2.01,2.58,3.28,4.81,3.74c1.33,0.28,2.58,0.05,3.8-0.51c0.14-0.07,0.33-0.08,0.48-0.07c0.24,0.03,0.43,0.17,0.49,0.43
	c0.06,0.28-0.05,0.49-0.27,0.66c-0.61,0.49-1.32,0.77-2.05,1.02c-0.53,0.18-1.07,0.26-1.63,0.25c-0.8-0.01-1.6,0.04-2.38-0.17
	c-3.76-1.02-6.11-3.42-6.93-7.23c-0.45-2.1-0.17-4.16,0.61-6.15c1.19-3.01,3.3-5.16,6.22-6.53c1.21-0.57,2.48-0.93,3.81-1.04
	c0.84-0.07,1.69-0.05,2.53,0c1.5,0.09,2.97,0.37,4.37,0.95c5.03,2.06,8.23,5.73,9.61,10.98c0.16,0.6,0.24,1.23,0.33,1.85
	c0.17,1.1,0.09,2.2,0.04,3.3c-0.01,0.17-0.02,0.35-0.05,0.52c-0.03,0.16,0.02,0.27,0.14,0.37c1.82,1.52,2.76,3.52,3.19,5.81
	c0.02,0.13,0,0.22-0.1,0.3c-1.68,1.39-3.57,2.19-5.77,2.17c-0.23,0-0.35,0.06-0.48,0.25c-1.34,1.96-2.86,3.76-4.84,5.11
	c-0.43,0.29-0.59,0.61-0.61,1.14c-0.05,1.35-0.48,2.62-1.07,3.83c-0.58,1.17-1.32,2.22-2.2,3.19c-0.09,0.1-0.18,0.13-0.31,0.1
	c-2.76-0.52-5.13-1.72-6.84-4.03c-0.08-0.11-0.17-0.14-0.29-0.14c-0.91-0.01-1.82,0.01-2.73-0.04c-1.91-0.11-3.78-0.48-5.6-1.08
	c-0.32-0.11-0.54-0.07-0.82,0.13c-1.88,1.34-3.98,2.15-6.25,2.53c-1,0.17-2.01,0.23-3.03,0.21c-0.16,0-0.24-0.06-0.3-0.21
	c-0.5-1.25-0.78-2.55-0.88-3.89c-0.13-1.76,0.08-3.49,0.65-5.16c0.05-0.15-0.01-0.23-0.1-0.32c-1.24-1.31-2.33-2.74-3.23-4.31
	c-0.26-0.45-0.54-0.66-1.07-0.75c-3.16-0.54-5.87-2-8.24-4.12c-0.52-0.46-0.98-0.99-1.48-1.47c-0.2-0.2-0.23-0.37-0.13-0.64
	c0.62-1.63,1.47-3.13,2.55-4.49c1.32-1.66,2.91-2.99,4.8-3.95c0.08-0.04,0.16-0.16,0.17-0.25c0.2-1.37,0.4-2.73,0.78-4.06
	c0.22-0.77,0.48-1.52,0.72-2.29c0.03-0.08,0.02-0.21-0.03-0.28c-1.29-1.79-2.12-3.78-2.63-5.92c-0.43-1.8-0.55-3.63-0.46-5.47
	c0.01-0.22,0.1-0.34,0.3-0.43c1.45-0.63,2.97-1.03,4.54-1.21c2.38-0.28,4.7-0.05,6.95,0.77c0.05,0.02,0.11,0.02,0.14,0.06
	c0.21,0.17,0.37,0.08,0.56-0.05c1.36-0.92,2.81-1.69,4.33-2.3c0.67-0.27,1.37-0.49,2.05-0.74c0.07-0.03,0.15-0.11,0.17-0.18
	c0.39-1.48,1.15-2.77,2.08-3.96c0.94-1.21,2.07-2.21,3.33-3.06c0.08-0.05,0.15-0.12,0.22-0.18
	C424.9,426.61,424.92,426.61,424.95,426.61z"/>
<circle class="st41" cx="298.05" cy="352.56" r="23.48"/>
<path class="st42" d="M300.05,378.5c-1.33,0-2.66,0-3.99,0c0.01-0.14-0.1-0.08-0.15-0.09c-0.42-0.06-0.85-0.1-1.27-0.16
	c-2.3-0.34-4.52-1.02-6.63-2.08c-5.67-2.84-9.76-7.35-12.25-13.5c-2.24-5.86-1.96-9.81-1.95-10.94c0.05-0.6,0.09-1.07,0.1-1.13
	c0.1-0.84,0.17-1.69,0.3-2.53c0.44-2.73,1.27-5.32,2.5-7.76c2.1-4.18,5.05-7.5,8.83-9.96c3.36-2.19,7.01-3.4,10.93-3.68
	c2.31-0.17,4.59,0.02,6.85,0.57c4.89,1.19,9.06,3.75,12.47,7.69c3.88,4.5,6.01,9.84,6.41,15.96c0.14,2.06,0.02,4.11-0.31,6.14
	c-0.47,2.9-1.37,5.63-2.71,8.19c-2.35,4.47-5.64,7.91-9.87,10.31c-2.7,1.54-5.58,2.47-8.62,2.82c-0.19,0.02-0.38,0.04-0.57,0.06
	C300.08,378.42,299.99,378.41,300.05,378.5z M305.2,355.54c-0.01-0.02-0.02-0.04-0.04-0.07c0.06-0.08,0.11-0.16,0.17-0.24
	c1.32-1.85,2.01-3.93,1.99-6.27c0-0.43-0.02-0.87-0.05-1.3c-0.08-1.31-0.34-2.59-0.79-3.81c-0.35-0.95-0.81-1.84-1.28-2.73
	c-0.75-1.4-1.27-2.88-1.43-4.5c-0.09-0.9-0.03-1.78,0.25-2.64c0.03-0.08,0.04-0.16,0.07-0.23c-0.1,0.03-0.17,0.09-0.23,0.15
	c-0.35,0.36-0.63,0.78-0.88,1.23c-0.44,0.81-0.75,1.68-1,2.58c-0.55,1.99-0.8,4.03-0.95,6.09c-0.04,0.58-0.07,1.15-0.1,1.73
	c-0.04-0.06-0.07-0.12-0.08-0.18c-0.04-0.25-0.08-0.5-0.11-0.76c-0.11-1.18-0.22-2.37-0.33-3.55c-0.09-0.89-0.21-1.77-0.51-2.61
	c-0.47-1.34-0.94-2.68-1.42-4.02c-0.23-0.64-0.46-1.28-0.61-1.95c-0.21-0.94-0.18-1.85,0.28-2.71c0.01-0.02,0.01-0.06,0.02-0.12
	c-0.11,0.02-0.19,0.03-0.27,0.06c-0.26,0.08-0.49,0.23-0.7,0.41c-0.38,0.32-0.67,0.72-0.92,1.16c-0.64,1.14-0.98,2.37-0.99,3.7
	c-0.02,1.62-0.23,3.21-0.63,4.78c-0.26,1.04-0.61,2.04-1.15,2.95c-0.04,0.08-0.1,0.15-0.14,0.22c-0.02-0.02-0.03-0.02-0.03-0.02
	c-0.01-0.07-0.01-0.13-0.02-0.2c-0.04-0.88-0.12-1.76-0.27-2.63c-0.17-0.94-0.42-1.87-0.82-2.73c-0.21-0.45-0.46-0.87-0.8-1.23
	c-0.18-0.19-0.39-0.35-0.63-0.44c-0.07-0.02-0.15-0.03-0.24-0.06c0.02,0.08,0.02,0.13,0.04,0.18c0.17,0.53,0.23,1.07,0.23,1.63
	c-0.01,0.81-0.14,1.59-0.37,2.35c-0.34,1.13-0.71,2.25-1.08,3.37c-0.46,1.38-0.89,2.76-1.09,4.21c-0.15,1.06-0.17,2.11-0.01,3.17
	c0.28,1.77,0.96,3.35,2,4.75c0.05,0.06,0.09,0.13,0.17,0.25c-2.49-0.47-4.88-1.16-7.33-1.66c0.02,0.09,0.02,0.13,0.04,0.18
	c0.24,0.75,0.52,1.48,0.86,2.18c0.69,1.42,1.58,2.68,2.52,3.92c0.14,0.18,0.28,0.25,0.5,0.25c7.04-0.01,14.07-0.01,21.11-0.01
	c0.33,0,0.67-0.01,1,0c0.13,0,0.23-0.04,0.31-0.14c0.34-0.43,0.7-0.84,1.02-1.28c1.06-1.46,1.9-3.05,2.43-4.81
	c0.03-0.08,0.04-0.17,0.07-0.29C310.36,354.4,307.77,354.94,305.2,355.54z M309.4,362.67c-7.58,0-15.14,0-22.71,0
	c0,1.47,0,2.93,0,4.4c7.58,0,15.14,0,22.71,0C309.4,365.6,309.4,364.14,309.4,362.67z M291.17,369.11c0,0.15-0.01,0.28,0,0.4
	c0.07,0.76,0.27,1.48,0.63,2.15c0.59,1.1,1.43,1.92,2.46,2.51c1.71,0.97,3.52,1.22,5.41,0.83c1.34-0.28,2.54-0.89,3.54-1.9
	c0.81-0.82,1.37-1.79,1.61-2.97c0.07-0.33,0.11-0.66,0.09-1.02C300.33,369.11,295.76,369.11,291.17,369.11z"/>
<path class="st43" d="M370.73,415.84c-0.04-0.38-0.05-0.6-0.09-0.82c-0.29-1.56-0.61-3.11-0.87-4.67c-0.11-0.65-0.42-1.01-1.05-1.23
	c-4.55-1.62-9.09-3.29-13.65-4.89c-1.2-0.42-1.03-1-0.39-1.68c0.79-0.83,1.69-1.54,2.56-2.29c2.82-2.44,5.66-4.85,8.47-7.3
	c0.88-0.77,1.77-0.94,2.87-0.55c4.39,1.57,8.79,3.12,13.2,4.64c0.93,0.32,1.42,0.89,1.6,1.86c0.86,4.71,1.76,9.42,2.67,14.12
	c0.19,0.97-0.04,1.67-0.8,2.31c-3.61,3.08-7.2,6.19-10.79,9.3c-0.73,0.63-1.53,0.78-2.44,0.46c-4.5-1.58-9-3.16-13.5-4.73
	c-0.92-0.32-1.43-0.93-1.6-1.88c-0.41-2.27-0.86-4.54-1.28-6.82c-0.16-0.85-0.03-0.95,0.78-0.68c4.47,1.53,8.94,3.07,13.41,4.6
	C370.08,415.7,370.34,415.74,370.73,415.84z M356.35,403.02c0.3,0.15,0.44,0.24,0.59,0.29c1.47,0.53,2.95,1.03,4.41,1.58
	c0.48,0.18,0.81,0.09,1.19-0.23c1.64-1.44,3.32-2.85,4.96-4.29c0.63-0.56,1.31-0.69,2.08-0.42c2.24,0.79,4.48,1.58,6.72,2.35
	c0.61,0.21,0.96,0.61,1.08,1.24c0.46,2.46,0.92,4.91,1.39,7.37c0.12,0.64-0.05,1.13-0.54,1.56c-1.8,1.54-3.6,3.1-5.4,4.65
	c-0.62,0.54-1.29,0.66-2.09,0.38c-4.11-1.43-8.23-2.83-12.35-4.24c-0.88-0.3-0.98-0.23-0.81,0.66c0.25,1.33,0.52,2.66,0.74,3.99
	c0.11,0.66,0.44,1.01,1.06,1.23c4.31,1.49,8.61,2.99,12.91,4.52c0.54,0.19,0.92,0.13,1.36-0.25c3.52-3.06,7.06-6.1,10.6-9.14
	c0.38-0.33,0.48-0.7,0.38-1.17c-0.21-1.06-0.4-2.13-0.6-3.19c-0.65-3.46-1.31-6.92-1.96-10.37c-0.1-0.52-0.28-0.91-0.85-1.11
	c-4.39-1.52-8.77-3.06-13.14-4.61c-0.57-0.2-0.96-0.1-1.41,0.28c-3.02,2.62-6.06,5.22-9.09,7.82
	C357.2,402.24,356.83,402.59,356.35,403.02z M376.13,404.79c-0.17,0.06-0.25,0.06-0.29,0.1c-1.51,1.28-3.03,2.54-4.51,3.85
	c-0.2,0.18-0.32,0.61-0.27,0.89c0.3,1.79,0.64,3.57,0.99,5.34c0.11,0.58,0.28,0.62,0.74,0.23c1.36-1.16,2.71-2.34,4.07-3.5
	c0.39-0.33,0.53-0.7,0.43-1.21c-0.34-1.7-0.65-3.4-0.97-5.09C376.28,405.21,376.2,405.02,376.13,404.79z M363.77,405.63
	c0.16,0.12,0.22,0.18,0.29,0.21c1.8,0.66,3.59,1.34,5.4,1.95c0.25,0.08,0.67-0.05,0.89-0.23c1.47-1.2,2.9-2.43,4.34-3.66
	c0.12-0.1,0.22-0.23,0.35-0.38c-0.15-0.1-0.24-0.18-0.35-0.22c-1.81-0.63-3.61-1.29-5.43-1.86c-0.3-0.09-0.79,0.07-1.05,0.29
	c-1.37,1.12-2.69,2.29-4.03,3.45C364.04,405.3,363.93,405.44,363.77,405.63z"/>
</svg>
